<svg width="18" height="23" viewBox="0 0 18 23" fill="none" xmlns="http://www.w3.org/2000/svg">
<path d="M15.364 15.8642L9 22.3921L2.636 15.8642C1.37734 14.5731 0.520187 12.9281 0.172928 11.1373C-0.17433 9.34651 0.00390685 7.49031 0.685099 5.80342C1.36629 4.11653 2.51984 2.67473 3.99988 1.66033C5.47992 0.645926 7.21998 0.104492 9 0.104492C10.78 0.104492 12.5201 0.645926 14.0001 1.66033C15.4802 2.67473 16.6337 4.11653 17.3149 5.80342C17.9961 7.49031 18.1743 9.34651 17.8271 11.1373C17.4798 12.9281 16.6227 14.5731 15.364 15.8642V15.8642ZM9 11.3877C9.53044 11.3877 10.0391 11.1716 10.4142 10.7869C10.7893 10.4021 11 9.88033 11 9.33623C11 8.79214 10.7893 8.27032 10.4142 7.88559C10.0391 7.50086 9.53044 7.28472 9 7.28472C8.46957 7.28472 7.96086 7.50086 7.58579 7.88559C7.21072 8.27032 7 8.79214 7 9.33623C7 9.88033 7.21072 10.4021 7.58579 10.7869C7.96086 11.1716 8.46957 11.3877 9 11.3877Z" fill="#011C40"/>
</svg>
