<svg width="18" height="19" viewBox="0 0 18 19" fill="none" xmlns="http://www.w3.org/2000/svg">
<path d="M18 14.3144V17.8966C18.0001 18.1531 17.9042 18.4001 17.7316 18.5878C17.559 18.7754 17.3226 18.8897 17.07 18.9077C16.633 18.9381 16.276 18.9543 16 18.9543C7.163 18.9543 0 11.6977 0 2.74514C0 2.46553 0.015 2.10386 0.046 1.66115C0.0637224 1.40529 0.176581 1.16577 0.361804 0.990912C0.547026 0.816053 0.790823 0.718878 1.044 0.718994H4.58C4.70404 0.718867 4.8237 0.765453 4.91573 0.849701C5.00776 0.93395 5.0656 1.04985 5.078 1.17488C5.101 1.40788 5.122 1.59328 5.142 1.73409C5.34073 3.13915 5.748 4.50569 6.35 5.78739C6.445 5.99001 6.383 6.23213 6.203 6.3618L4.045 7.92396C5.36445 11.0386 7.81455 13.5207 10.889 14.8574L12.429 12.6753C12.4919 12.5861 12.5838 12.5222 12.6885 12.4946C12.7932 12.467 12.9042 12.4775 13.002 12.5243C14.267 13.133 15.6156 13.5446 17.002 13.7451C17.141 13.7653 17.324 13.7876 17.552 13.8099C17.6752 13.8227 17.7894 13.8814 17.8724 13.9746C17.9553 14.0678 18.0012 14.1889 18.001 14.3144H18Z" fill="#011C40"/>
</svg>
